#tb 0: 1/60
#media_type 0: video
#codec_id 0: rawvideo
#dimensions 0: 320x240
#sar 0: 1/1
0,          0,          0,        1,   307200, 0xb49cf016
0,          1,          1,        1,   307200, 0xbe4390ed
0,          2,          2,        1,   307200, 0xe4ca172c
0,          3,          3,        1,   307200, 0x5378b13c
0,          4,          4,        1,   307200, 0xe742454c
0,          5,          5,        1,   307200, 0x68f620cd
0,          6,          6,        1,   307200, 0x83dbe321
0,          7,          7,        1,   307200, 0x7135c77d
0,          8,          8,        1,   307200, 0xc69a864a
0,          9,          9,        1,   307200, 0xc5c8b0f8
0,         10,         10,        1,   307200, 0xf6ee5d1c
0,         11,         11,        1,   307200, 0xab36763c
0,         12,         12,        1,   307200, 0xcba4c6bb
0,         13,         13,        1,   307200, 0xb379c679
0,         14,         14,        1,   307200, 0x63339757
0,         15,         15,        1,   307200, 0x4bdfd3ca
0,         16,         16,        1,   307200, 0x14e09691
0,         17,         17,        1,   307200, 0x5dc7c711
0,         18,         18,        1,   307200, 0xda8c6c41
0,         19,         19,        1,   307200, 0xe187c6b6
0,         20,         20,        1,   307200, 0x5d8b76ab
0,         21,         21,        1,   307200, 0xe2337c57
0,         22,         22,        1,   307200, 0x492117d7
0,         23,         23,        1,   307200, 0xf0df5ea3
0,         24,         24,        1,   307200, 0x4237e892
0,         25,         25,        1,   307200, 0x4f61a7d7
0,         26,         26,        1,   307200, 0x2ba55745
0,         27,         27,        1,   307200, 0x0e058165
0,         28,         28,        1,   307200, 0xe371f352
0,         29,         29,        1,   307200, 0xab562bfe
0,         30,         30,        1,   307200, 0x0b58bcf7
0,         31,         31,        1,   307200, 0xf1a04a1e
0,         32,         32,        1,   307200, 0xb466f1d6
0,         33,         33,        1,   307200, 0x3ed6b5d8
0,         34,         34,        1,   307200, 0x05091a43
0,         35,         35,        1,   307200, 0xbfb20efc
0,         36,         36,        1,   307200, 0xbd67248a
0,         37,         37,        1,   307200, 0x58001b29
0,         38,         38,        1,   307200, 0x6ec5bbb1
0,         39,         39,        1,   307200, 0x0e4455cd
0,         40,         40,        1,   307200, 0x5c2c3213
0,         41,         41,        1,   307200, 0x976f6900
0,         42,         42,        1,   307200, 0x58adad3f
0,         43,         43,        1,   307200, 0x8dbb14f0
0,         44,         44,        1,   307200, 0x49163226
0,         45,         45,        1,   307200, 0xaac8e1ca
0,         46,         46,        1,   307200, 0x07cc8404
0,         47,         47,        1,   307200, 0xbf85c994
0,         48,         48,        1,   307200, 0x22ed5b5a
0,         49,         49,        1,   307200, 0x1bf7df1e
0,         50,         50,        1,   307200, 0x3a21b4d2
0,         51,         51,        1,   307200, 0xbd5edb2d
0,         52,         52,        1,   307200, 0x336a8437
0,         53,         53,        1,   307200, 0x02c7e528
0,         54,         54,        1,   307200, 0xba073e6f
0,         55,         55,        1,   307200, 0x9e25ddfe
0,         56,         56,        1,   307200, 0x8cf55128
0,         57,         57,        1,   307200, 0x4e740b42
0,         58,         58,        1,   307200, 0x8e7e705c
